<?xml version="1.0" standalone="no"?>
<!DOCTYPE svg PUBLIC "-//W3C//DTD SVG 20010904//EN"
 "http://www.w3.org/TR/2001/REC-SVG-20010904/DTD/svg10.dtd">
<svg version="1.0" xmlns="http://www.w3.org/2000/svg"
 width="400" height="430" viewBox="0 0 400 430"
 preserveAspectRatio="xMidYMid meet">

<g transform="translate(0,430) scale(0.1,-0.1)"
fill="#000000" stroke="none">
<path d="M2899 3710 c-163 -28 -378 -120 -483 -208 -155 -129 -261 -318 -312
-557 -23 -111 -23 -360 0 -470 35 -158 107 -308 197 -408 l47 -52 42 40 c24
22 62 66 85 97 l43 57 -33 88 c-48 128 -66 228 -72 398 -6 172 10 299 53 435
65 209 206 403 351 485 106 59 270 80 388 50 96 -25 145 -55 231 -140 96 -95
122 -137 191 -310 33 -83 57 -131 68 -133 14 -3 15 14 10 175 -11 357 -16 423
-31 423 -7 0 -19 -10 -25 -22 -31 -59 -56 -60 -213 -9 -67 22 -156 47 -198 55
-81 17 -257 20 -339 6z"/>
<path d="M1108 3669 c-20 -13 2 -26 51 -32 96 -11 178 -75 203 -159 10 -33 13
-199 13 -738 l0 -695 -24 -53 c-39 -86 -121 -142 -208 -142 -26 0 -71 -29 -47
-30 5 0 268 -1 584 -1 472 0 595 3 687 16 209 29 321 82 448 209 322 324 309
972 -28 1339 -24 26 -47 47 -53 47 -11 0 -86 -101 -116 -157 -21 -39 -21 -45
-9 -75 41 -97 91 -263 100 -331 42 -309 -26 -597 -190 -803 -119 -150 -262
-214 -480 -214 -176 0 -267 43 -322 151 -25 50 -30 72 -38 200 -5 79 -8 434
-7 789 l3 645 60 3 c33 2 124 -1 201 -7 147 -11 239 -33 326 -77 l48 -24 55
42 55 43 -27 11 c-16 7 -73 19 -128 28 -81 13 -199 17 -623 19 -288 1 -529 -1
-534 -4z"/>
<path d="M3687 2288 c-61 -259 -225 -402 -493 -428 -111 -10 -222 2 -315 34
l-66 23 -55 -36 c-30 -20 -64 -41 -74 -47 -16 -9 -4 -15 76 -33 238 -56 493
-33 675 62 72 38 180 143 217 212 31 58 78 213 78 256 0 56 -25 31 -43 -43z"/>
</g>
</svg>
